<svg xmlns="http://www.w3.org/2000/svg" viewBox="0 0 88.51 61.18"><defs><style>.cls-1{fill:#8366ff;}.cls-2{fill:#2ee5c6;}</style></defs><title>attis_logoterv</title><g id="Layer_1" data-name="Layer 1"><polygon class="cls-1" points="45.82 23 37.16 61.18 26.35 61.18 32.55 33.82 17.88 33.82 25.35 23 45.82 23"/><polygon class="cls-1" points="56.14 50.37 70.61 50.37 63.15 61.18 42.96 61.18 56.37 0 67.19 0 62.14 23 63.15 23 70.62 33.82 59.77 33.82 56.14 50.37"/><polygon class="cls-2" points="13.18 61.18 26.35 61.18 13.18 42.09 26.35 23 13.18 23 0 42.09 13.18 61.18"/><polygon class="cls-2" points="75.33 23 62.14 23 75.33 42.09 62.16 61.18 75.33 61.18 88.5 42.09 75.33 23"/></g></svg>